Coordinates
version=1
nRows=17
nColumns=40
inDegrees=yes

Units are S.I. units (second, meters, Newtons, ...)
Angles are in degrees.

endheader
time	pelvis_tilt	pelvis_list	pelvis_rotation	pelvis_tx	pelvis_ty	pelvis_tz	hip_flexion_r	hip_adduction_r	hip_rotation_r	knee_angle_r	knee_angle_r_beta	ankle_angle_r	subtalar_angle_r	mtp_angle_r	hip_flexion_l	hip_adduction_l	hip_rotation_l	knee_angle_l	knee_angle_l_beta	ankle_angle_l	subtalar_angle_l	mtp_angle_l	lumbar_extension	lumbar_bending	lumbar_rotation	arm_flex_r	arm_add_r	arm_rot_r	elbow_flex_r	pro_sup_r	wrist_flex_r	wrist_dev_r	arm_flex_l	arm_add_l	arm_rot_l	elbow_flex_l	pro_sup_l	wrist_flex_l	wrist_dev_l
      2.48750000	     -7.50309986	     -6.51429693	     -2.55325540	      1.01263719	      0.93130677	      0.41544249	     38.95521560	     -4.86355707	     -7.64098427	     63.03060556	     63.03060556	     -2.58517509	    -16.05390419	      0.83304715	     15.85168942	     -6.78731643	     -7.79854564	     21.92650763	     21.92650763	     15.36205788	    -10.35736510	      2.47300703	    -12.63003242	      7.63091877	      3.50239456	      9.11530733	    -13.79004676	     -7.23547347	     42.57599598	     46.51363784	      0.00000000	      0.00000000	     11.95260683	    -16.72935704	     -3.94750390	     76.87258648	     47.27455563	      0.00000000	      0.00000000
      2.49957143	     -7.45620568	     -6.45924241	     -2.77568276	      1.01106007	      0.93185254	      0.41547008	     39.60495052	     -4.67937469	     -7.80198697	     60.62093866	     60.62093866	     -2.42425993	    -15.42797017	      0.92020360	     14.87227953	     -6.72088779	     -8.19106269	     21.20249822	     21.20249822	     15.56107133	     -9.96566698	      2.40887909	    -12.88133869	      7.61161535	      3.82765001	      7.27665998	    -14.13592727	     -7.01760295	     40.46554067	     46.56066065	      0.00000000	      0.00000000	     13.69266093	    -16.77009009	     -4.42016476	     78.74348826	     47.35784263	      0.00000000	      0.00000000
      2.51164286	     -7.44082262	     -6.36308715	     -2.97525862	      1.00961727	      0.93209807	      0.41566579	     40.10508801	     -4.50186724	     -7.94908981	     57.86780937	     57.86780937	     -2.44227954	    -14.83496241	      0.44889522	     13.98855143	     -6.68768250	     -8.84215008	     20.61285614	     20.61285614	     15.68476934	     -9.21096713	      1.68617292	    -12.97944894	      7.50771547	      3.33116266	      7.30806724	    -13.97544009	     -6.21168771	     34.69023674	     46.69158182	      0.00000000	      0.00000000	     14.66927032	    -17.72841680	     -4.40248794	     81.23130455	     47.45806046	      0.00000000	      0.00000000
      2.52371429	     -7.55642002	     -6.18461980	     -3.09470111	      1.00818245	      0.93198127	      0.41589966	     40.60798389	     -4.41310914	     -8.10161425	     54.87406020	     54.87406020	     -2.30620114	    -14.05675592	      0.67573666	     13.29694892	     -6.48811138	     -9.09769011	     20.06929127	     20.06929127	     15.92256640	     -8.90367862	      1.61488400	    -12.91958225	      7.37416479	      3.04695164	      5.52213999	    -13.96344188	     -6.10512938	     33.61821118	     46.70997253	      0.00000000	      0.00000000	     16.17692168	    -18.28045372	     -4.89547313	     82.38140228	     47.52243597	      0.00000000	      0.00000000
      2.53578571	     -7.46344361	     -5.94348390	     -3.21930722	      1.00711886	      0.93211989	      0.41611588	     40.62495594	     -4.39157131	     -8.28605155	     51.50978125	     51.50978125	     -2.07485830	    -13.02541263	      0.79075680	     12.20304670	     -6.21160439	     -9.61869799	     19.24537671	     19.24537671	     16.11998471	     -8.23825511	      1.48563217	    -13.13682311	      7.14707591	      3.29616043	      3.70440353	    -14.13665685	     -5.88070817	     31.95541178	     46.74319236	      0.00000000	      0.00000000	     17.73995204	    -18.27781129	     -5.06303255	     84.32939533	     47.58288901	      0.00000000	      0.00000000
      2.54785714	     -7.33240426	     -5.60502936	     -3.34995509	      1.00622139	      0.93197137	      0.41655104	     40.46136085	     -4.40308268	     -8.38490843	     47.95862903	     47.95862903	     -1.87413883	    -11.84314592	      0.67777634	     11.08648022	     -5.87088211	    -10.29916602	     18.48753888	     18.48753888	     16.38520491	     -7.29581147	      1.07121890	    -13.35805315	      6.69828432	      3.50745456	      2.08615582	    -14.15056300	     -5.48840624	     29.86179001	     46.78063123	      0.00000000	      0.00000000	     19.19043383	    -18.48582923	     -4.87106051	     86.65592860	     47.63299018	      0.00000000	      0.00000000
      2.55992857	     -7.35577680	     -5.32982874	     -3.35120978	      1.00535613	      0.93132042	      0.41710635	     40.20770895	     -4.36153559	     -8.63473866	     44.08151337	     44.08151337	     -2.02605421	    -10.88424609	     -0.18752806	     10.25678253	     -5.64566202	    -10.98475667	     17.91941674	     17.91941674	     16.54458129	     -6.18863831	      0.06841555	    -13.31326776	      6.37308322	      2.92143127	      1.21201809	    -13.93553264	     -4.59348623	     27.07866092	     46.79712168	      0.00000000	      0.00000000	     20.04838933	    -19.58623918	     -4.44431862	     89.03291847	     47.70131527	      0.00000000	      0.00000000
      2.57200000	     -7.42467749	     -5.03699487	     -3.28688413	      1.00469697	      0.93046794	      0.41767157	     39.80627317	     -4.33309709	     -8.94524010	     40.07517519	     40.07517519	     -1.75834116	     -9.64548121	      0.19225853	      9.44125188	     -5.29999607	    -11.22117128	     17.26154534	     17.26154534	     16.82454921	     -5.66373658	     -0.10560248	    -13.15481665	      6.06604847	      2.59810248	     -0.53770090	    -13.75482851	     -4.46283556	     26.35914002	     46.79712018	      0.00000000	      0.00000000	     21.32665453	    -19.92164595	     -4.75385793	     90.23454429	     47.75575922	      0.00000000	      0.00000000
      2.58407143	     -7.46797024	     -4.67820534	     -3.19195919	      1.00424923	      0.92933298	      0.41835683	     39.21665438	     -4.32825912	     -9.22309595	     36.00703096	     36.00703096	     -1.44186451	     -8.25228951	      0.66297094	      8.59073159	     -4.89999477	    -11.51200650	     16.62742345	     16.62742345	     17.13986414	     -4.96337313	     -0.39559823	    -13.00819053	      5.66722723	      2.30634418	     -2.33301375	    -13.51519278	     -4.33639367	     25.74336870	     46.79256826	      0.00000000	      0.00000000	     22.56404179	    -20.28420097	     -4.88138282	     91.57772953	     47.80072487	      0.00000000	      0.00000000
      2.59614286	     -7.27507487	     -4.33339361	     -3.01041655	      1.00434748	      0.92830637	      0.41907908	     38.16770525	     -4.38488829	     -9.76769115	     31.97254710	     31.97254710	     -1.02284246	     -6.49102151	      1.27773260	      7.37433673	     -4.52130621	    -11.97072631	     15.84097338	     15.84097338	     17.48087139	     -3.83716572	     -0.90362259	    -13.11604779	      5.24398217	      2.16561980	     -4.31847743	    -13.42822007	     -4.18883668	     25.28957676	     46.77531122	      0.00000000	      0.00000000	     23.57737524	    -20.45987247	     -4.61326976	     93.33529781	     47.83211739	      0.00000000	      0.00000000
      2.60821429	     -7.28571979	     -3.93993165	     -2.81222559	      1.00455169	      0.92662052	      0.42003322	     37.28827454	     -4.40450156	    -10.19005131	     28.16484677	     28.16484677	     -0.67349744	     -5.00348209	      2.13023025	      6.45968424	     -4.11447128	    -12.32510633	     15.21412255	     15.21412255	     17.85405312	     -2.94106011	     -1.40254369	    -12.85605810	      4.75918787	      1.84283587	     -6.16769148	    -13.13907423	     -4.08928809	     25.03627853	     46.75486566	      0.00000000	      0.00000000	     24.58546249	    -20.88131655	     -4.46283335	     94.65405935	     47.86239828	      0.00000000	      0.00000000
      2.62028571	     -7.03027828	     -3.49851683	     -2.56667273	      1.00530143	      0.92499371	      0.42097642	     36.18892678	     -4.62550659	    -10.98217020	     25.02438485	     25.02438485	      0.28896684	     -2.75372084	      4.18493100	      5.12267198	     -3.70229035	    -13.16151353	     14.41182402	     14.41182402	     18.08087530	     -1.16325066	     -2.76374423	    -12.94974674	      4.22300390	      1.84776588	     -8.75875914	    -13.02797276	     -3.88722665	     26.12000271	     46.64688759	      0.00000000	      0.00000000	     25.48571375	    -21.35309485	     -3.39402087	     96.63305167	     47.86721985	      0.00000000	      0.00000000
      2.63235714	     -6.98484437	     -3.20417187	     -2.25381679	      1.00610071	      0.92302268	      0.42210344	     35.14531471	     -4.54277819	    -11.44710834	     21.96002583	     21.96002583	      0.55039078	     -1.64164460	      5.41232256	      4.14177941	     -3.39071588	    -13.20584707	     13.83095591	     13.83095591	     18.48195543	     -0.52108743	     -3.20232458	    -12.66244202	      3.89535120	      1.48933710	    -10.61650427	    -12.81361061	     -3.81940352	     26.10519720	     46.61828296	      0.00000000	      0.00000000	     26.18274903	    -21.55222615	     -3.28427721	     97.41925365	     47.88747630	      0.00000000	      0.00000000
      2.64442857	     -6.82760258	     -2.84574463	     -1.98116255	      1.00718185	      0.92103548	      0.42331613	     34.32669293	     -4.67836706	    -12.14850166	     20.12587070	     20.12587070	      2.18843984	      0.04874865	     10.01652239	      2.90019150	     -3.02126214	    -13.51000525	     13.00320853	     13.00320853	     18.45351361	      0.42774513	     -4.72428297	    -12.54644258	      3.48810537	      1.90779029	    -13.94780493	    -12.77514466	     -3.42773548	     29.06623135	     46.38478648	      0.00000000	      0.00000000	     27.32506608	    -21.50562612	     -2.03944402	     98.07953150	     47.92076369	      0.00000000	      0.00000000
      2.65650000	     -6.71345814	     -2.50941652	     -1.65198924	      1.00849218	      0.91896907	      0.42460301	     33.42933286	     -4.77391139	    -12.79367325	     18.45514462	     18.45514462	      2.33745357	      1.10435940	     10.58296872	      1.78190210	     -2.68577242	    -13.57564641	     12.37332599	     12.37332599	     18.85293629	      1.22014683	     -5.07328660	    -12.29268431	      3.10401431	      1.61719836	    -15.64790132	    -12.50528268	     -3.39393129	     29.04668538	     46.35809972	      0.00000000	      0.00000000	     27.65725323	    -21.67805941	     -1.75305178	     99.04687763	     47.95118482	      0.00000000	      0.00000000
      2.66857143	     -6.74671384	     -2.17602036	     -1.26462883	      1.00973237	      0.91652412	      0.42599181	     33.00707138	     -4.90140655	    -12.99487859	     17.78442838	     17.78442838	      2.45676344	      1.16627965	     10.70244399	      1.11547854	     -2.42213590	    -13.31776286	     12.29796380	     12.29796380	     19.37771527	      1.48009369	     -5.32262066	    -11.80320904	      2.74627596	      1.11009038	    -16.99902137	    -12.27488852	     -3.38451385	     28.66613095	     46.36039381	      0.00000000	      0.00000000	     27.81193120	    -21.81239726	     -1.82182869	     99.30300401	     47.96355384	      0.00000000	      0.00000000
      2.68064286	     -6.59743359	     -2.08441723	     -1.00761852	      1.01133340	      0.91500464	      0.42770535	     31.96710511	     -4.73242795	    -13.62370648	     16.73061692	     16.73061692	      2.18087660	      1.85927726	     10.66112902	     -0.13438746	     -2.38422703	    -13.39477194	     11.53939643	     11.53939643	     19.65147836	      2.24772594	     -5.42329701	    -11.63761900	      2.63248777	      1.22004413	    -18.41064495	    -11.94366855	     -3.42001462	     28.65490204	     46.34663550	      0.00000000	      0.00000000	     27.78426630	    -21.64119152	     -1.55431055	    100.36150639	     47.97774837	      0.00000000	      0.00000000
